# xmcd
#
# Track frame offsets: 
#        150
#        10708
#        27075
#        46160
#        61060
#        76595
#        90388
#        104583
#        121630
#        135855
#        146343
#        163045
#        183763
#        192013
#        205045
#        234558
#        246468
#        255920
#        272628
#        281890
#        298518
#        312133
#
# Disc length: 4332 seconds
#
# Revision: 1
# Processed by: cddbd v1.5.1PL0 Copyright (c) Steve Scherf et al.
# Submitted via: ExactAudioCopy v0.95a5
#
DISCID=1510ea16
DTITLE=Various Artist - COUNTRY POHODA 1
DYEAR=2002
DGENRE=Country
TTITLE0=Michal Tucny and Fesaci - Hotel Zvon
TTITLE1=Pavel Bobek - Muz na konci sveta
TTITLE2=Waldemar Matuska - Tajna laska
TTITLE3=Rangers - Tvym snum zlym
TTITLE4=Karel Kahovec - Dlouhy schody
TTITLE5=Vera Martinova - Atmosfera letnich bourek
TTITLE6=Mirek Hoffmann - Sam ted jezdim bilou dalnici
TTITLE7=Petr Spaleny - Co s tvou laskou
TTITLE8=Jaroslav Uhlir - Severni vitr
TTITLE9=Nada Urbankova - V udoli blizko drahy
TTITLE10=Pavel Brumer - Hvezda countryon
TTITLE11=Michal Tucny - Modra z dzin
TTITLE12=Eva Olmerova - Bila mriz
TTITLE13=Milan Drobny - Pada dest
TTITLE14=Waldemar Matuska - Jsem svym panem
TTITLE15=Ladislav Vodicka - Ridic ma tvrdy chleb
TTITLE16=Michal Tucny - Ja tajne cvicim
TTITLE17=Vera Martinova - Par havranich copanku
TTITLE18=Rangers - Kral silnic
TTITLE19=Petr Spaleny - Lenko
TTITLE20=Pavel Bobek - Pojd se mnou touhle ulici
TTITLE21=Matuska and Blechova - Kousek lasky zustal ve strunach
EXTD=YEAR: 2002
EXTT0=
EXTT1=
EXTT2=
EXTT3=
EXTT4=
EXTT5=
EXTT6=
EXTT7=
EXTT8=
EXTT9=
EXTT10=
EXTT11=
EXTT12=
EXTT13=
EXTT14=
EXTT15=
EXTT16=
EXTT17=
EXTT18=
EXTT19=
EXTT20=
EXTT21=
PLAYORDER=
